<svg xmlns="http://www.w3.org/2000/svg" viewBox="0 0 640 480" role="img" aria-label="Chatting illustration">
  <rect width="640" height="480" rx="36" fill="#F6EFE8"/>
  <circle cx="190" cy="206" r="56" fill="#D7BFA8"/>
  <circle cx="450" cy="186" r="52" fill="#C4D3C0"/>
  <rect x="104" y="270" width="188" height="104" rx="28" fill="#7A5C45"/>
  <rect x="348" y="250" width="188" height="104" rx="28" fill="#6E8470"/>
  <path d="M160 374l-26 34 7-34" fill="#7A5C45"/>
  <path d="M500 354l28 32-8-32" fill="#6E8470"/>
  <rect x="142" y="300" width="112" height="12" rx="6" fill="#F6EFE8"/>
  <rect x="142" y="326" width="88" height="12" rx="6" fill="#F6EFE8"/>
  <rect x="386" y="282" width="108" height="12" rx="6" fill="#F6EFE8"/>
  <rect x="386" y="308" width="126" height="12" rx="6" fill="#F6EFE8"/>
  <path d="M182 244c20 14 40 14 60 0" fill="none" stroke="#7A5C45" stroke-width="8" stroke-linecap="round"/>
  <path d="M424 226c18 12 36 12 54 0" fill="none" stroke="#6E8470" stroke-width="8" stroke-linecap="round"/>
  <circle cx="168" cy="196" r="6" fill="#7A5C45"/>
  <circle cx="214" cy="196" r="6" fill="#7A5C45"/>
  <circle cx="432" cy="178" r="6" fill="#6E8470"/>
  <circle cx="470" cy="178" r="6" fill="#6E8470"/>
</svg>
